<svg viewBox="0 0 512 512" xmlns="http://www.w3.org/2000/svg"><path d="m388.816406 143.699219c-5.242187-.691407-9.988281-3.039063-13.730468-6.78125-3.746094-3.742188-6.089844-8.488281-6.785157-13.730469-.359375-2.71875-1.820312-5.167969-4.039062-6.78125-2.21875-1.609375-5.003907-2.234375-7.699219-1.734375-21.96875 4.078125-54.996094 12.324219-89.148438 28.46875l-50.523437-20.648437c-3.40625-1.390626-7.304687-.800782-10.144531 1.542968-18.8125 15.511719-35.484375 32.039063-49.546875 49.121094-3.507813 4.261719-2.898438 10.566406 1.367187 14.074219 1.859375 1.535156 4.109375 2.28125 6.347656 2.28125 2.886719 0 5.75-1.242188 7.726563-3.644531 12.105469-14.707032 26.304687-29.007813 42.265625-42.582032l29.386719 12.011719c-18.046875 10.511719-35.785157 23.453125-51.746094 39.414063-40.621094 40.621093-61.472656 92.519531-71.8125 128.902343-1.207031 4.25-2.296875 8.375-3.289063 12.371094-.59375-22.707031 2.464844-53.300781 16.492188-86.851563 2.132812-5.097656-.273438-10.953124-5.367188-13.082031-5.09375-2.128906-10.953124.269531-13.082031 5.367188-27.851562 66.601562-17.207031 122.695312-10.566406 145.605469l-97.308594 23.910156c-3.503906.863281-6.273437 3.546875-7.246093 7.023437-.96875 3.476563.007812 7.207031 2.5625 9.761719l81.355468 81.351562c1.902344 1.902344 4.457032 2.929688 7.074219 2.929688.894531 0 1.800781-.121094 2.6875-.367188 3.476563-.972656 6.160156-3.742187 7.023437-7.246093l24.785157-100.875c5.351562-.542969 13.339843-1.523438 23.25-3.253907l15.589843 27.660157c4.339844 7.699219 12.339844 12.347656 21.097657 12.347656.429687 0 .863281-.007813 1.292969-.03125 9.261718-.480469 17.304687-6.066406 20.992187-14.570313l21.121094-48.691406c26.441406-11.132812 55.257812-27.222656 80.558593-50.324218h41.265626c7.9375 0 15.300781-3.582032 20.199218-9.824219 4.898438-6.246094 6.628906-14.246094 4.742188-21.957031l-10.570313-43.179688c.296875-.59375.601563-1.191406.894531-1.785156.472657-.707032.855469-1.484375 1.136719-2.3125 17.097657-35.210938 25.707031-69.539063 29.90625-92.148438.5-2.695312-.128906-5.476562-1.738281-7.699218-1.609375-2.21875-4.0625-3.679688-6.777344-4.042969zm-302.9375 338.683593-56.257812-56.261718 74.585937-18.324219zm54.234375-153.796874c9.703125-33.953126 29.125-82.28125 66.578125-119.730469 16.316406-16.320313 34.730469-29.261719 53.375-39.535157 4.703125 19.972657 14.914063 38.445313 29.542969 53.074219.28125.28125.578125.546875.863281.824219h-13.308594c-6.78125 0-12.90625 4.019531-15.605468 10.242188-2.699219 6.21875-1.453125 13.4375 3.179687 18.394531l25.832031 27.617187c3.269532 3.496094 7.765626 5.398438 12.40625 5.398438 1.503907 0 3.023438-.199219 4.519532-.613282 6.113281-1.675781 10.753906-6.5625 12.117187-12.75l5.558594-25.265624c5.660156 2.371093 11.519531 4.28125 17.511719 5.691406-10.273438 18.644531-23.214844 37.058594-39.535156 53.378906-37.449219 37.449219-85.777344 56.875-119.730469 66.574219-22.96875 6.5625-42.664063 9.695312-54.433594 11.132812 1.433594-11.773437 4.566406-31.464843 11.128906-54.433593zm165.246094-85.367188-4.0625 18.449219-17.253906-18.449219zm-115.628906 174.484375c-.914063 2.105469-2.699219 2.507813-3.683594 2.558594-.976563.0625-2.804687-.160157-3.929687-2.160157l-12.414063-22.027343c5.90625-1.363281 12.15625-2.949219 18.679687-4.804688 4.691407-1.332031 9.640626-2.84375 14.785157-4.542969zm166.808593-118.082031c.570313 2.332031-.414062 4.042968-1.050781 4.851562-.636719.8125-2.0625 2.171875-4.464843 2.171875h-21.894532c8.171875-9.5 15.449219-19.4375 21.890625-29.566406zm-4.523437-66.179688c-18.1875-3.257812-35.117187-12.042968-48.265625-25.191406-13.144531-13.144531-21.933594-30.078125-25.1875-48.265625 26.867188-12.390625 52.933594-19.660156 72.570312-23.839844 2.179688 5.546875 5.488282 10.59375 9.808594 14.914063v.003906c4.320313 4.320312 9.371094 7.625 14.917969 9.804688-4.183594 19.636718-11.453125 45.703124-23.84375 72.574218zm0 0"/><path d="m311.585938 157.929688c-5.667969 5.667968-8.789063 13.203124-8.789063 21.214843s3.121094 15.546875 8.789063 21.210938c5.847656 5.851562 13.527343 8.773437 21.210937 8.773437s15.367187-2.925781 21.214844-8.773437c5.664062-5.664063 8.785156-13.199219 8.785156-21.210938s-3.121094-15.546875-8.785156-21.214843c-11.699219-11.695313-30.730469-11.695313-42.425781 0zm28.285156 28.285156c-1.890625 1.890625-4.402344 2.929687-7.074219 2.929687-2.667969 0-5.179687-1.039062-7.066406-2.929687-1.890625-1.886719-2.933594-4.398438-2.933594-7.070313s1.042969-5.179687 2.933594-7.070312c1.886719-1.890625 4.398437-2.929688 7.066406-2.929688 2.671875 0 5.183594 1.039063 7.074219 2.929688 1.886718 1.890625 2.925781 4.398437 2.925781 7.070312s-1.039063 5.183594-2.925781 7.070313zm0 0"/><path d="m64 189.496094c8.652344 0 17.308594-3.292969 23.894531-9.882813 13.175781-13.175781 13.175781-34.613281 0-47.789062s-34.613281-13.175781-47.789062 0-13.175781 34.613281 0 47.789062c6.585937 6.589844 15.242187 9.882813 23.894531 9.882813zm-9.753906-43.527344c2.6875-2.691406 6.222656-4.035156 9.753906-4.035156s7.0625 1.34375 9.753906 4.035156c5.375 5.375 5.375 14.125 0 19.503906-5.378906 5.378906-14.128906 5.378906-19.507812 0-5.375-5.378906-5.375-14.128906 0-19.503906zm0 0"/><path d="m107.351562 96.980469c10.195313 0 20.394532-3.878907 28.160157-11.644531 15.527343-15.527344 15.527343-40.796876 0-56.324219-15.527344-15.53125-40.796875-15.527344-56.324219 0-15.527344 15.527343-15.527344 40.796875 0 56.324219 7.765625 7.761718 17.964844 11.644531 28.164062 11.644531zm-14.023437-53.828125c3.867187-3.867188 8.941406-5.796875 14.023437-5.796875 5.074219 0 10.152344 1.929687 14.019532 5.796875 7.730468 7.730468 7.730468 20.3125 0 28.039062-7.730469 7.734375-20.3125 7.730469-28.042969 0-7.730469-7.730468-7.730469-20.308594 0-28.039062zm0 0"/><path d="m256 99c9.351562 0 18.136719-3.640625 24.75-10.25 13.644531-13.648438 13.644531-35.851562 0-49.496094-6.613281-6.613281-15.398438-10.253906-24.75-10.253906s-18.140625 3.640625-24.75 10.25c-13.644531 13.648438-13.644531 35.851562 0 49.496094 6.613281 6.613281 15.402344 10.253906 24.75 10.253906zm-10.605469-45.605469c2.832031-2.835937 6.597657-4.394531 10.605469-4.394531 4.003906 0 7.773438 1.558594 10.605469 4.394531 5.847656 5.847657 5.847656 15.363281 0 21.210938-2.832031 2.835937-6.597657 4.394531-10.605469 4.394531s-7.773438-1.558594-10.605469-4.394531c-5.851562-5.847657-5.851562-15.363281 0-21.210938zm0 0"/><path d="m134.257812 205.066406c-.019531.035156-.066406.113282-.089843.148438-2.886719 4.707031-1.425781 10.890625 3.285156 13.777344 1.636719 1.003906 3.449219 1.480468 5.234375 1.480468 3.351562 0 6.617188-1.683594 8.5-4.753906.019531-.035156.070312-.113281.089844-.144531 2.886718-4.710938 1.425781-10.894531-3.285156-13.777344-4.707032-2.890625-10.847657-1.4375-13.734376 3.269531zm0 0"/><path d="m502 40h-10v-30c0-5.523438-4.476562-10-10-10s-10 4.476562-10 10v30h-10c-5.523438 0-10 4.476562-10 10v45c0 11.972656 8.632812 21.960938 20 24.078125v28.921875c0 5.515625-4.488281 10-10 10-5.515625 0-10-4.484375-10-10 0-5.523438-4.476562-10-10-10s-10 4.476562-10 10c0 16.542969 13.457031 30 30 30s30-13.457031 30-30v-28.921875c11.367188-2.117187 20-12.105469 20-24.078125v-45c0-5.523438-4.476562-10-10-10zm-10 55c0 2.480469-2.019531 4.5-4.5 4.5h-11c-2.480469 0-4.5-2.019531-4.5-4.5v-35h20zm0 0"/><path d="m512 256c0-5.523438-4.476562-10-10-10s-10 4.476562-10 10c0 8.910156-5.171875 16.632812-12.667969 20.335938v-20.335938c0-5.523438-4.476562-10-10-10-5.519531 0-10 4.476562-10 10v20.335938c-7.496093-3.703126-12.664062-11.425782-12.664062-20.335938 0-5.523438-4.480469-10-10-10-5.523438 0-10 4.476562-10 10 0 20.082031 13.949219 36.957031 32.664062 41.472656v34.882813c-7.496093-3.699219-12.664062-11.421875-12.664062-20.332031 0-5.523438-4.480469-10-10-10-5.523438 0-10 4.476562-10 10 0 20.082031 13.949219 36.957031 32.664062 41.46875v60.570312c-7.496093-3.699219-12.664062-11.421875-12.664062-20.332031 0-5.523438-4.480469-10-10-10-5.523438 0-10 4.476562-10 10 0 20.082031 13.949219 36.957031 32.664062 41.46875v34.886719c-7.496093-3.699219-12.664062-11.421876-12.664062-20.332032 0-5.523437-4.480469-10-10-10-5.523438 0-10 4.476563-10 10 0 20.082032 13.949219 36.957032 32.664062 41.46875v10.777344c0 5.523438 4.480469 10 10 10 5.523438 0 10-4.476562 10-10v-10.773438c18.71875-4.515624 32.667969-21.390624 32.667969-41.472656 0-5.523437-4.476562-10-10-10s-10 4.476563-10 10c0 8.910156-5.171875 16.632813-12.667969 20.335938v-34.890625c18.71875-4.511719 32.667969-21.386719 32.667969-41.46875 0-5.519531-4.476562-10-10-10s-10 4.480469-10 10c0 8.910156-5.171875 16.632812-12.667969 20.335937v-60.574218c18.71875-4.511719 32.667969-21.386719 32.667969-41.46875 0-5.523438-4.476562-10-10-10s-10 4.476562-10 10c0 8.910156-5.171875 16.632812-12.667969 20.335937v-34.886719c18.71875-4.515625 32.667969-21.390625 32.667969-41.472656zm0 0"/><path d="m387.964844 393.730469c0-5.519531-4.476563-10-10-10-5.523438 0-10 4.480469-10 10 0 8.910156-5.171875 16.632812-12.667969 20.335937v-20.335937c0-5.519531-4.476563-10-10-10-5.519531 0-10 4.480469-10 10v20.335937c-7.496094-3.703125-12.664063-11.425781-12.664063-20.335937 0-5.519531-4.480468-10-10-10-5.523437 0-10 4.480469-10 10 0 20.082031 13.949219 36.957031 32.664063 41.472656v34.886719c-7.496094-3.703125-12.664063-11.425782-12.664063-20.335938 0-5.523437-4.480468-10-10-10-5.523437 0-10 4.476563-10 10 0 20.082032 13.949219 36.957032 32.664063 41.472656v10.773438c0 5.523438 4.480469 10 10 10 5.523437 0 10-4.476562 10-10v-10.773438c18.714844-4.515624 32.667969-21.390624 32.667969-41.472656 0-5.523437-4.476563-10-10-10-5.523438 0-10 4.476563-10 10 0 8.910156-5.171875 16.632813-12.667969 20.335938v-34.890625c18.71875-4.511719 32.667969-21.386719 32.667969-41.46875zm0 0"/><path d="m56.859375 226.148438c-1.859375 1.863281-2.929687 4.441406-2.929687 7.070312 0 2.632812 1.070312 5.210938 2.929687 7.070312 1.859375 1.859376 4.429687 2.929688 7.070313 2.929688 2.628906 0 5.210937-1.070312 7.070312-2.929688 1.859375-1.859374 2.929688-4.4375 2.929688-7.070312 0-2.628906-1.070313-5.207031-2.929688-7.070312-1.859375-1.859376-4.441406-2.929688-7.070312-2.929688-2.628907 0-5.210938 1.070312-7.070313 2.929688zm0 0"/><path d="m400.070312 69.75c-2.628906 0-5.210937 1.070312-7.070312 2.929688-1.859375 1.859374-2.929688 4.441406-2.929688 7.070312s1.070313 5.210938 2.929688 7.070312c1.859375 1.859376 4.441406 2.929688 7.070312 2.929688 2.628907 0 5.210938-1.070312 7.070313-2.929688 1.859375-1.859374 2.929687-4.441406 2.929687-7.070312s-1.070312-5.210938-2.929687-7.070312c-1.859375-1.859376-4.441406-2.929688-7.070313-2.929688zm0 0"/><path d="m267.398438 451.941406c-2.628907 0-5.207032 1.070313-7.066407 2.929688-1.863281 1.859375-2.933593 4.4375-2.933593 7.070312 0 2.628906 1.070312 5.207032 2.933593 7.070313 1.859375 1.859375 4.4375 2.929687 7.066407 2.929687 2.632812 0 5.210937-1.070312 7.070312-2.929687 1.859375-1.863281 2.929688-4.441407 2.929688-7.070313 0-2.632812-1.066407-5.210937-2.929688-7.070312-1.859375-1.859375-4.4375-2.929688-7.070312-2.929688zm0 0"/><path d="m19.167969 308.328125c2.632812 0 5.203125-1.058594 7.070312-2.929687 1.859375-1.859376 2.929688-4.4375 2.929688-7.070313 0-2.628906-1.066407-5.207031-2.929688-7.066406-1.859375-1.863281-4.4375-2.933594-7.070312-2.933594-2.640625 0-5.207031 1.070313-7.066407 2.933594-1.859374 1.859375-2.933593 4.4375-2.933593 7.066406 0 2.632813 1.070312 5.210937 2.933593 7.070313 1.859376 1.871093 4.4375 2.929687 7.066407 2.929687zm0 0"/></svg>