<svg height="512pt" viewBox="-115 0 512 512.00199" width="512pt" xmlns="http://www.w3.org/2000/svg"><path d="m181.734375 323.605469c6.285156-14.566407-4.472656-30.84375-20.3125-30.84375-9.359375 0-17.375 5.847656-20.59375 14.082031-3.222656-8.234375-11.238281-14.082031-20.597656-14.082031-15.859375 0-26.585938 16.300781-20.308594 30.84375-12.71875-4.257813-25.738281 5.285156-25.738281 18.53125 0 10.78125 8.773437 19.554687 19.554687 19.554687 1.417969 0 2.804688-.160156 4.136719-.449218-14.734375 24.683593-10.867188 53.96875 8.273438 65.023437 9.847656 5.683594 21.269531 5.390625 31.679687 1.171875 1.90625-.773438 4.089844-.773438 5.996094 0 37.09375 15.039062 63.402343-25.628906 40.457031-65.371094-.164062-.28125-.339844-.550781-.503906-.824218 1.335937.289062 2.71875.449218 4.136718.449218 10.78125 0 19.554688-8.773437 19.554688-19.554687 0-13.234375-13.007812-22.789063-25.734375-18.53125zm-87.996094 23.050781c-2.492187 0-4.519531-2.027344-4.519531-4.519531 0-2.492188 2.027344-4.515625 4.519531-4.515625 2.492188 0 4.515625 2.023437 4.515625 4.515625 0 2.492187-2.027344 4.519531-4.515625 4.519531zm74.703125-2.972656c-4.234375-3.304688-8.796875-5.894532-13.519531-7.675782 4.753906 1.464844 9.929687 1.292969 14.65625-.589843-1.039063 2.828125-1.351563 5.492187-1.136719 8.265625zm-7.019531-35.886719c3.902344 0 7.078125 3.171875 7.078125 7.074219 0 3.90625-3.175781 7.078125-7.078125 7.078125s-7.078125-3.171875-7.078125-7.078125c0-3.902344 3.175781-7.074219 7.078125-7.074219zm-20.59375 15.105469c2.207031 5.640625 6.664063 10.160156 12.265625 12.449218-8.152344-2.683593-15.789062-2.875-24.53125 0 5.597656-2.289062 10.058594-6.808593 12.265625-12.449218zm-20.597656-15.105469c3.902343 0 7.078125 3.171875 7.078125 7.074219 0 3.90625-3.175782 7.078125-7.078125 7.078125-3.902344 0-7.074219-3.171875-7.074219-7.078125 0-3.902344 3.171875-7.074219 7.074219-7.074219zm6.5 28.210937c-4.71875 1.78125-9.285157 4.371094-13.519531 7.675782.21875-2.757813-.09375-5.425782-1.136719-8.265625 4.71875 1.878906 9.898437 2.058593 14.65625.589843zm22.738281 77.492188c-5.574219-2.257812-11.710938-2.257812-17.289062.003906-6.84375 2.773438-13.421876 2.679688-18.515626-.261718-11.578124-6.683594-13.074218-26.679688-3.269531-43.660157 7.125-12.347656 20.878907-23.472656 34.761719-20.816406 9.8125 1.945313 19.816406 9.921875 26.101562 20.816406 14.773438 25.582031 3.113282 54.011719-21.789062 43.917969zm38.449219-66.84375c-2.492188 0-4.519531-2.027344-4.519531-4.519531 0-2.492188 2.027343-4.515625 4.519531-4.515625 2.488281 0 4.515625 2.023437 4.515625 4.515625 0 2.492187-2.027344 4.519531-4.515625 4.519531zm0 0"/><path d="m154.125 443.835938h-26.597656c-4.152344 0-7.515625 3.363281-7.515625 7.515624 0 4.152344 3.363281 7.519532 7.515625 7.519532h26.597656c4.152344 0 7.519531-3.367188 7.519531-7.519532 0-4.152343-3.367187-7.515624-7.519531-7.515624zm0 0"/><path d="m253.363281 372.328125c0-62.050781-50.484375-112.535156-112.535156-112.535156-62.054687 0-112.535156 50.484375-112.535156 112.535156 0 62.054687 50.480469 112.539063 112.535156 112.539063 62.050781 0 112.535156-50.484376 112.535156-112.539063zm-112.535156 97.503906c-53.765625 0-97.503906-43.742187-97.503906-97.503906s43.738281-97.5 97.503906-97.5c53.761719 0 97.5 43.738281 97.5 97.5s-43.738281 97.503906-97.5 97.503906zm0 0"/><path d="m169.097656 234.355469c.957032-6.378907-.253906-12.539063-3.097656-17.800781h13.886719c11.476562 0 20.816406-9.335938 20.816406-20.8125v-4.433594c0-6.996094-3.476563-13.179688-8.78125-16.953125l24.214844-61.167969c1.527343-3.863281-.359375-8.230469-4.222657-9.757812-3.859374-1.527344-8.226562.363281-9.757812 4.222656l-24.875 62.839844h-.679688c-4.507812-11.390626-24.410156-61.664063-27.6875-69.941407l33.851563-85.515625h56.058594l-22.777344 57.535156c-1.527344 3.863282.359375 8.230469 4.222656 9.757813 3.859375 1.527344 8.226563-.363281 9.753907-4.222656l24.09375-60.855469c3.273437-8.269531-2.832032-17.25-11.726563-17.25h-61.273437c-5.207032 0-9.808594 3.128906-11.722657 7.96875l-28.566406 72.160156-28.570313-72.164062c-1.914062-4.839844-6.515624-7.964844-11.722656-7.964844h-61.273437c-8.890625 0-14.996094 8.980469-11.722657 17.25l62.195313 157.105469c-5.304687 3.773437-8.785156 9.960937-8.785156 16.953125v4.433594c0 11.476562 9.339843 20.816406 20.816406 20.816406h13.890625c-2.847656 5.257812-4.054688 11.417968-3.101562 17.796875-64.148438 13.125-112.554688 70.003906-112.554688 137.972656 0 70.386719 52.578125 130.402344 122.300781 139.609375 4.113281.542969 7.894531-2.355469 8.4375-6.46875.542969-4.117188-2.351562-7.894531-6.46875-8.4375-62.273437-8.222656-109.234375-61.832031-109.234375-124.703125 0-67.632813 53.816406-123.433594 121.554688-125.710937 71.125-2.386719 130.027344 54.832031 130.027344 125.710937 0 62.871094-46.960938 116.480469-109.234376 124.703125-4.113281.542969-7.011718 4.320312-6.46875 8.4375.5 3.78125 3.730469 6.535156 7.445313 6.535156.328125 0 .660156-.023437.992187-.066406 69.726563-9.207031 122.304688-69.222656 122.304688-139.605469-.003906-67.976562-48.410156-124.851562-112.558594-137.976562zm-126.269531-219.320313h56.058594c8.230469 20.789063 59.90625 151.316406 61.546875 155.457032h-56.058594zm111.417969 217.109375c-9.023438-.855469-17.808594-.855469-26.835938 0-1.226562-8.230469 5.164063-15.589843 13.417969-15.589843 7.480469 0 13.566406 6.085937 13.566406 13.566406 0 .6875-.050781 1.363281-.148437 2.023437zm-52.480469-30.621093c-3.1875 0-5.78125-2.59375-5.78125-5.78125v-4.433594c0-3.257813 2.675781-5.78125 5.78125-5.78125h78.121094c3.160156 0 5.78125 2.570312 5.78125 5.78125v4.433594c0 3.1875-2.59375 5.78125-5.78125 5.78125zm0 0"/></svg>