<svg version="1.1" id="Capa_1" xmlns="http://www.w3.org/2000/svg" xmlns:xlink="http://www.w3.org/1999/xlink" x="0px" y="0px"viewBox="0 0 512.001 512.001" style="enable-background:new 0 0 512.001 512.001;" xml:space="preserve"> <path d="M507.521,337.669c0-56.411-16.414-109.939-47.557-155.337c10.394-32.761,7.666-68.286-7.914-100.929 C435.512,46.749,406.7,19.859,370.922,5.688L356.563,0l-30.018,82.832c-22.843-7.039-46.507-10.599-70.546-10.599 c-24.039,0-47.703,3.56-70.546,10.599L155.436,0l-14.361,5.688c-35.778,14.172-64.59,41.061-81.129,75.715 c-15.579,32.642-18.308,68.168-7.914,100.929C20.892,227.73,4.478,281.258,4.478,337.669v8.163L166.667,450.7 c13.861,35.825,48.675,61.301,89.333,61.301c40.658,0,75.473-25.477,89.333-61.301l162.19-104.869v-8.163H507.521z M80.863,193.515l4.826-6.613l-2.951-7.636c-10.463-27.07-8.943-57.237,4.28-84.944c11.029-23.111,28.872-41.921,51.075-54.143 l29.363,81.025l14.227-5.384c23.828-9.018,48.831-13.592,74.317-13.592c25.485,0,50.489,4.573,74.316,13.592l14.227,5.384 l29.364-81.025c22.204,12.222,40.046,31.032,51.077,54.142c13.224,27.708,14.744,57.875,4.28,84.944l-2.951,7.636l4.826,6.613 c14.563,19.955,25.827,41.813,33.609,64.979h-36.494c-7.204-44.853-46.178-79.224-93.029-79.224 c-24.799,0-47.386,9.634-64.227,25.351v-53.013h-29.995v53.013c-16.842-15.716-39.429-25.351-64.227-25.351 c-46.852,0-85.826,34.371-93.029,79.224H47.254C55.037,235.329,66.3,213.469,80.863,193.515z M160.446,410.96L34.597,329.588 c0.437-13.958,2.005-27.691,4.67-41.099h73.28v-14.997c0-35.415,28.812-64.227,64.227-64.227 c35.415,0,64.227,28.812,64.227,64.227v37.66C219.226,323.215,164.006,358.795,160.446,410.96z M255.999,482.005 c-36.255,0-65.75-29.495-65.75-65.75c0-13.236,5.983-34.014,34.484-57.835c11.964-9.999,24.129-17.322,31.276-21.27 c7.028,3.874,18.905,11.02,30.788,20.88c28.889,23.969,34.953,44.892,34.953,58.225 C321.75,452.51,292.254,482.005,255.999,482.005z M351.552,410.959c-3.559-52.165-58.78-87.745-80.555-99.807v-37.659 c0-35.415,28.812-64.227,64.227-64.227s64.227,28.812,64.227,64.227v14.997h73.28c2.666,13.409,4.233,27.141,4.67,41.099 L351.552,410.959z"/> <rect x="151.353" y="279.581" width="29.995" height="29.995"/> <rect x="330.651" y="279.581" width="29.995" height="29.995"/> <polygon points="279.675,399.75 255.999,415.534 232.324,399.75 215.687,424.707 255.999,451.584 296.312,424.707"/> </svg>